<?xml version="1.0" encoding="UTF-8" standalone="no"?>
<!-- Created with Inkscape (http://www.inkscape.org/) -->

<svg
   xmlns:dc="http://purl.org/dc/elements/1.1/"
   xmlns:cc="http://creativecommons.org/ns#"
   xmlns:rdf="http://www.w3.org/1999/02/22-rdf-syntax-ns#"
   xmlns:svg="http://www.w3.org/2000/svg"
   xmlns="http://www.w3.org/2000/svg"
   xmlns:sodipodi="http://sodipodi.sourceforge.net/DTD/sodipodi-0.dtd"
   xmlns:inkscape="http://www.inkscape.org/namespaces/inkscape"
   width="192"
   height="240"
   id="svg3316"
   version="1.1"
   inkscape:version="0.48.4 r9939"
   sodipodi:docname="browse.svg">
  <defs
     id="defs3318" />
  <sodipodi:namedview
     id="base"
     pagecolor="#ffffff"
     bordercolor="#666666"
     borderopacity="1.0"
     inkscape:pageopacity="0"
     inkscape:pageshadow="2"
     inkscape:zoom="2.4748737"
     inkscape:cx="88.303962"
     inkscape:cy="275.38436"
     inkscape:current-layer="layer1"
     showgrid="true"
     inkscape:grid-bbox="true"
     inkscape:document-units="px"
     width="160px"
     fit-margin-bottom="200"
     fit-margin-top="0"
     fit-margin-left="0"
     fit-margin-right="0"
     showguides="true"
     inkscape:snap-from-guide="false"
     inkscape:window-width="1855"
     inkscape:window-height="1056"
     inkscape:window-x="65"
     inkscape:window-y="24"
     inkscape:window-maximized="1">
    <inkscape:grid
       type="xygrid"
       id="grid3324"
       empspacing="5"
       visible="true"
       enabled="true"
       snapvisiblegridlinesonly="true"
       spacingx="48px"
       spacingy="48px"
       originx="0px"
       originy="0px" />
  </sodipodi:namedview>
  <metadata
     id="metadata3321">
    <rdf:RDF>
      <cc:Work
         rdf:about="">
        <dc:format>image/svg+xml</dc:format>
        <dc:type
           rdf:resource="http://purl.org/dc/dcmitype/StillImage" />
        <dc:title />
      </cc:Work>
    </rdf:RDF>
  </metadata>
  <g
     id="layer1"
     inkscape:label="Layer 1"
     inkscape:groupmode="layer"
     transform="translate(-5,197)">
    <g
       id="g3027"
       transform="matrix(0.33304032,0,0,0.33304032,131.99768,-2.8369507)"
       style="fill:#ffffff">
      <path
         style="fill:#ffffff"
         d="m -312.61514,-315.2459 c -2.85799,-2.22499 -8.62866,-7.02563 -36.36728,-30.2541 l -14.32998,-12 11.6562,-0.28174 11.6562,-0.28173 0,-30.46827 0,-30.46826 31,0 31,0 0,30.46826 0,30.46827 11.72083,0.28173 11.72082,0.28174 -13.97082,11.63862 C -276.21313,-339.46014 -287,-330.4583 -292.5,-325.85728 -305.01231,-315.39014 -308.07962,-313 -309,-313 c -0.40165,0 -2.02847,-1.01066 -3.61514,-2.2459 z m 111.06449,-10.44037 c 0.4001,-7.04755 0.89764,-12.98619 1.10563,-13.19697 0.56604,-0.57363 20.73382,12.22163 21.12177,13.4005 0.18411,0.55949 -4.90541,3.62567 -11.31005,6.81373 l -11.64481,5.79647 0.72746,-12.81373 z M -186,-337.56248 c -6.325,-3.99372 -11.39475,-7.72922 -11.2661,-8.30111 0.12864,-0.57189 8.16803,-13.53494 17.86529,-28.80678 9.69727,-15.27183 17.86259,-28.36943 18.14515,-29.10577 0.28982,-0.75525 1.22028,-1.07347 2.1347,-0.73007 3.41268,1.2816 22.11539,13.05073 22.11811,13.91835 0.004,1.13175 -3.76478,7.63156 -10.48657,18.08786 -2.82853,4.4 -9.806,15.425 -15.5055,24.5 -5.6995,9.075 -10.61976,16.76973 -10.9339,17.09941 -0.31415,0.32967 -5.74618,-2.66818 -12.07118,-6.66189 z m 41.80059,-65.25117 c -5.88467,-3.71351 -10.9985,-7.05093 -11.36406,-7.41649 -0.70047,-0.70047 2.72832,-6.79185 5.23285,-9.29638 2.65124,-2.65124 7.19871,-1.69778 14.95281,3.13514 7.64805,4.76682 9.23674,7.10977 7.82883,11.54569 -0.82265,2.59195 -4.68613,8.83075 -5.45102,8.8024 -0.275,-0.0102 -5.31473,-3.05686 -11.19941,-6.77036 z M -183,-474.5 l 0,-17.5 -18,0 -18,0 0,-19 0,-19 17.5,0 17.5,0 0,-17.5 0,-17.5 19,0 19,0 0,18.15748 0,18.15749 17.5,-0.63294 17.5,-0.63294 0,18.97546 0,18.97545 -17.5,0 -17.5,0 0,17.5 0,17.5 -18.5,0 -18.5,0 0,-17.5 z m 127.60027,11.90071 c -0.33753,-0.8796 0.0788,-6.1671 0.92527,-11.75 0.84644,-5.58289 1.80292,-12.00697 2.12551,-14.27574 1.01604,-7.14563 -1.07377,-10.97018 -12.30242,-22.5147 -9.65002,-9.92148 -12.00344,-13.71951 -9.47101,-15.28464 0.48269,-0.29832 7.27554,-1.66465 15.0952,-3.03629 19.86609,-3.4847 19.30801,-3.04769 30.03929,-23.52249 4.73785,-9.03961 5.85986,-10.51685 7.98789,-10.51685 2.12803,0 3.25004,1.47724 7.98789,10.51685 10.73128,20.4748 10.1732,20.03779 30.03929,23.52249 7.81966,1.37164 14.61251,2.73797 15.0952,3.03629 2.68267,1.65799 0.35157,5.48597 -9.03595,14.83827 -5.45247,5.432 -10.71232,11.64768 -11.68857,13.8126 -1.60874,3.56756 -1.65463,4.74816 -0.48997,12.60487 C 14.2734,-462.46517 14.27157,-461 10.87763,-461 c -1.04961,0 -7.41396,-2.78495 -14.14301,-6.18878 -16.70755,-8.45137 -18.79781,-8.45144 -35.38551,-10e-4 -12.63901,6.43866 -15.71607,7.28206 -16.74884,4.59071 z m 15.31477,-14.35737 c 14.5125,-7.40372 21.95207,-7.85132 33.96225,-2.04334 4.54931,2.2 8.38644,4 8.52694,4 0.14051,0 -0.27447,-3.65568 -0.92217,-8.12372 -1.25416,-8.65175 -0.65334,-14.60574 2.04845,-20.29933 1.62229,-3.41873 3.02147,-5.17597 9.72947,-12.2193 l 3.94513,-4.14235 -7.35255,-1.2208 c -14.0748,-2.33696 -20.51715,-6.82768 -26.4925,-18.46698 -2.12303,-4.13542 -4.10098,-7.52087 -4.39543,-7.52323 -0.29445,-0.002 -1.95475,2.87407 -3.68956,6.39208 -6.07606,12.32162 -13.05747,17.37401 -27.13586,19.638 l -7.3608,1.18371 5.54804,5.64096 c 3.05143,3.10253 6.75826,8.06974 8.2374,11.03825 2.50771,5.03275 2.65499,6.04588 2.18049,15 -0.27988,5.28149 -0.835,10.39021 -1.23359,11.35271 -0.92212,2.22665 -0.30899,2.19788 4.40429,-0.20666 z m 128.68523,14.35737 c -0.33753,-0.8796 0.0788,-6.1671 0.92527,-11.75 0.84644,-5.58289 1.80292,-12.00697 2.12551,-14.27574 1.01604,-7.14563 -1.07377,-10.97018 -12.30242,-22.5147 -9.65002,-9.92148 -12.00344,-13.71951 -9.47101,-15.28464 0.48269,-0.29832 7.27554,-1.66465 15.0952,-3.03629 19.86609,-3.4847 19.30801,-3.04769 30.03929,-23.52249 4.73785,-9.03961 5.85986,-10.51685 7.98789,-10.51685 2.12803,0 3.25004,1.47724 7.98789,10.51685 10.73128,20.4748 10.1732,20.03779 30.03929,23.52249 7.81966,1.37164 14.61251,2.73797 15.0952,3.03629 2.68267,1.65799 0.35157,5.48597 -9.03595,14.83827 -5.45247,5.432 -10.71232,11.64768 -11.68857,13.8126 -1.60874,3.56756 -1.65463,4.74816 -0.48997,12.60487 3.34962,22.59624 3.35339,24.16863 0.058,24.16863 -1.0011,0 -7.56395,-2.8125 -14.58412,-6.25 -16.87931,-8.26514 -18.40566,-8.25984 -35.12626,0.12194 -12.78027,6.40656 -15.63658,7.18322 -16.65519,4.52877 z M -363,-511 l 0,-18 54,0 54,0 0,18 0,18 -54,0 -54,0 0,-18 z"
         id="path3041"
         inkscape:connector-curvature="0" />
      <path
         style="fill:#ffffff"
         d="m -323.13658,-324.08927 c -7.34988,-6.16891 -19.33991,-16.20997 -26.64452,-22.31346 l -13.2811,-11.09727 11.5311,-0.28174 11.5311,-0.28173 0,-30.46827 0,-30.46826 31,0 31,0 0,30.46826 0,30.46827 11.60676,0.28173 11.60677,0.28174 -26.15123,21.79845 c -14.38318,11.98915 -26.75519,22.0302 -27.49335,22.31346 -0.75316,0.28902 -7.20628,-4.40691 -14.70553,-10.70118 z m 121.68249,-1.57491 c 0.39001,-7.0597 0.86075,-13.00734 1.04609,-13.21698 0.18534,-0.20964 5.13658,2.67854 11.00275,6.41817 12.34683,7.87099 12.59708,6.61065 -2.89247,14.56709 l -9.86547,5.06755 0.7091,-12.83583 z m 14.65565,-12.4709 -11.29845,-7.06811 1.70945,-2.60894 c 0.9402,-1.43493 9.11332,-14.32671 18.16249,-28.64841 9.04918,-14.3217 16.97446,-26.59613 17.61175,-27.2765 1.62254,-1.73223 23.8053,11.47105 23.25193,13.83967 -0.20593,0.88144 -6.88926,11.90644 -14.85184,24.5 -21.03103,33.26249 -21.77847,34.40062 -22.56762,34.36388 -0.3956,-0.0184 -5.80357,-3.21413 -12.01771,-7.10159 z m 42.30348,-64.89257 c -6.04723,-3.81816 -11.12771,-7.34036 -11.28996,-7.8271 -0.16225,-0.48675 1.20447,-2.85605 3.03714,-5.26512 4.63243,-6.08936 7.42826,-6.20808 16.57768,-0.70392 9.5523,5.74652 10.58901,8.16294 6.63674,15.46924 -1.59307,2.945 -3.13727,5.3353 -3.43157,5.31178 -0.29429,-0.0235 -5.4828,-3.16672 -11.53003,-6.98488 z M -183,-475 l 0,-18 -18,0 -18,0 0,-17.97693 0,-17.97692 17.75,-0.27308 17.75,-0.27307 0.27307,-17.75 0.27308,-17.75 17.97692,0 17.97693,0 0,18 0,18 18,0 18,0 0,17.97693 0,17.97692 -17.75,0.27308 -17.75,0.27307 -0.27307,17.75 -0.27308,17.75 -17.97692,0 -17.97693,0 0,-18 z m 127.69995,11.96061 c -0.29332,-1.12167 0.321,-7.30917 1.36517,-13.75 3.27938,-20.22853 3.15141,-20.6371 -10.95936,-34.98923 C -70.5262,-517.50692 -75,-522.89563 -75,-523.95107 c 0,-2.39661 3.3155,-3.48939 17,-5.60313 12.28817,-1.89806 17.91183,-4.09059 20.69828,-8.06974 1.1077,-1.58183 4.33977,-7.4288 7.18239,-12.99327 2.84261,-5.56447 6.05735,-10.92171 7.14386,-11.90499 1.8973,-1.71703 2.05364,-1.71703 3.95094,0 1.08651,0.98328 4.30125,6.34052 7.14386,11.90499 2.84262,5.56447 6.07469,11.41144 7.18239,12.99327 2.78645,3.97915 8.41011,6.17168 20.69828,8.06974 13.36736,2.06475 17,3.22777 17,5.44266 0,0.95334 -4.74042,6.65522 -10.53428,12.67083 -13.4633,13.97862 -13.50231,14.09687 -10.80249,32.75027 2.20083,15.20587 2.0985,17.69044 -0.7286,17.69044 -1.00766,0 -7.7623,-2.925 -15.01032,-6.5 -9.11934,-4.49801 -14.332,-6.5 -16.92431,-6.5 -2.59231,0 -7.80497,2.00199 -16.92431,6.5 -7.24802,3.575 -14.00266,6.5 -15.01032,6.5 -1.00766,0 -2.0721,-0.91773 -2.36542,-2.03939 z m 13.75954,-12.89506 c 0.31764,-0.51395 4.27507,-2.36038 8.79429,-4.10317 10.71107,-4.13063 16.22803,-3.85521 27.20592,1.35817 4.30823,2.04597 7.94763,3.59833 8.08755,3.44969 0.13993,-0.14863 -0.31206,-3.858 -1.00443,-8.24303 -2.03008,-12.85738 -0.15774,-18.62703 9.66317,-29.77721 3.26991,-3.7125 5.72584,-6.75 5.45762,-6.75 -2.26364,0 -16.07538,-3.14521 -18.78688,-4.27814 -5.09759,-2.12992 -11.98942,-9.58399 -15.3106,-16.55967 -1.61363,-3.3892 -3.18863,-6.16026 -3.5,-6.1579 -0.31137,0.002 -2.30316,3.38781 -4.42619,7.52323 -3.64113,7.09251 -8.50476,12.32827 -14.17658,15.26129 -1.57742,0.81571 -16.98614,4.21119 -19.11046,4.21119 -0.23439,0 2.44758,3.29508 5.95994,7.32241 8.56923,9.82562 10.16364,14.18403 9.35523,25.57303 -0.34489,4.85877 -0.90944,9.56997 -1.25456,10.46934 -0.67948,1.77072 2.00326,2.38792 3.04598,0.70077 z m 130.24046,12.89506 c -0.29332,-1.12167 0.321,-7.30917 1.36517,-13.75 3.27938,-20.22853 3.15141,-20.6371 -10.95936,-34.98923 C 73.4738,-517.50692 69,-522.89563 69,-523.95107 c 0,-2.39661 3.3155,-3.48939 17,-5.60313 12.28817,-1.89806 17.91183,-4.09059 20.69828,-8.06974 1.1077,-1.58183 4.33977,-7.4288 7.18239,-12.99327 2.84261,-5.56447 6.05735,-10.92171 7.14386,-11.90499 1.8973,-1.71703 2.05364,-1.71703 3.95094,0 1.08651,0.98328 4.30125,6.34052 7.14386,11.90499 2.84262,5.56447 6.07469,11.41144 7.18239,12.99327 2.78645,3.97915 8.41011,6.17168 20.69828,8.06974 13.36736,2.06475 17,3.22777 17,5.44266 0,0.95334 -4.74042,6.65522 -10.53428,12.67083 -13.4633,13.97862 -13.50231,14.09687 -10.80249,32.75027 2.20083,15.20587 2.0985,17.69044 -0.7286,17.69044 -1.00766,0 -7.7623,-2.925 -15.01032,-6.5 -9.11934,-4.49801 -14.332,-6.5 -16.92431,-6.5 -2.59231,0 -7.80497,2.00199 -16.92431,6.5 -7.24802,3.575 -14.00266,6.5 -15.01032,6.5 -1.00766,0 -2.0721,-0.91773 -2.36542,-2.03939 z M -363,-511 l 0,-18 54,0 54,0 0,18 0,18 -54,0 -54,0 0,-18 z"
         id="path3039"
         inkscape:connector-curvature="0" />
      <path
         style="fill:#ffffff"
         d="m -336.37683,-335.25 -26.60965,-22.25 11.99324,-0.28078 11.99324,-0.28078 0,-30.46922 0,-30.46922 30.5,0 30.5,0 0,30.46826 0,30.46827 11.52371,0.28173 11.5237,0.28174 -26.67019,22.25 c -14.6686,12.2375 -27.00189,22.25 -27.40729,22.25 -0.40541,0 -12.71145,-10.0125 -27.34676,-22.25 z m 134.95629,9.61796 c 0.37914,-7.07738 0.81814,-13.01974 0.97556,-13.20525 0.50368,-0.59355 20.4408,12.29916 20.55295,13.29094 0.0593,0.52451 -4.91545,3.6151 -11.05501,6.86796 l -11.16284,5.91431 0.68934,-12.86796 z m 14.69376,-12.53449 -11.22678,-7.00214 3.29255,-5.16566 c 1.8109,-2.84112 9.9703,-15.74067 18.132,-28.66567 8.1617,-12.925 15.35018,-24.0645 15.9744,-24.75445 0.89212,-0.98606 3.26582,0.0498 11.09477,4.84162 5.47791,3.35285 10.59685,6.70793 11.37542,7.45575 1.21178,1.16392 -0.1527,3.85011 -9.47774,18.65837 -20.00452,31.76739 -26.17351,41.21123 -27.05907,41.42359 -0.48332,0.1159 -5.93082,-2.94024 -12.10555,-6.79141 z m 42.32982,-64.94122 c -5.99333,-3.76907 -11.09179,-7.04767 -11.32991,-7.28578 -0.5273,-0.52731 2.36515,-5.27988 5.0858,-8.35647 2.91272,-3.29378 6.50583,-2.7973 14.47449,2 10.16453,6.11927 11.32226,10.35029 4.89376,17.88474 l -2.22718,2.61034 -10.89696,-6.85283 z M -183,-475 l 0,-18 -18,0 -18,0 0,-18 0,-18 18,0 18,0 0,-18 0,-18 18,0 18,0 0,18 0,18 18,0 18,0 0,18 0,18 -18,0 -18,0 0,18 0,18 -18,0 -18,0 0,-18 z m 128.18746,12.25 c -0.55252,-1.09513 -0.11668,-7.03063 1.16466,-15.86128 2.74275,-18.90219 2.63322,-19.23548 -10.89038,-33.13737 -5.75234,-5.91324 -10.45945,-11.5215 -10.46027,-12.46281 -0.002,-2.06206 3.42627,-3.0862 17.99853,-5.37714 11.63475,-1.82912 16.86216,-3.98089 19.77192,-8.13876 1.0672,-1.52495 4.26613,-7.32538 7.10875,-12.88985 2.84261,-5.56447 6.05735,-10.92171 7.14386,-11.90499 1.8973,-1.71703 2.05364,-1.71703 3.95094,0 1.08651,0.98328 4.30125,6.34052 7.14386,11.90499 2.84262,5.56447 6.07469,11.41144 7.18239,12.99327 2.80695,4.00844 8.49727,6.24067 20.70983,8.12417 C 29.0459,-527.48951 33,-526.2812 33,-524.30836 c 0,0.8451 -4.71278,6.45471 -10.47285,12.4658 -13.26542,13.84355 -13.55369,14.64692 -11.20363,31.22299 2.1172,14.93361 2.14545,18.50238 0.15254,19.26713 -0.83817,0.32164 -7.70067,-2.39392 -15.25,-6.03456 -9.33198,-4.50032 -14.91012,-6.61834 -17.4248,-6.61618 -2.5295,0.002 -7.86459,2.05794 -16.87695,6.50318 -7.24801,3.575 -13.78025,6.5 -14.51608,6.5 -0.73582,0 -1.73517,-0.7875 -2.22077,-1.75 z M -20.5,-482.5 c 6.08371,0 8.02587,0.50128 14.83716,3.8295 4.31044,2.10623 8.01167,3.655 8.22496,3.44172 0.21328,-0.21329 -0.18774,-4.0047 -0.89117,-8.42536 -2.05939,-12.94209 -0.26228,-18.50335 9.473,-29.31479 6.39457,-7.10143 6.34089,-7.37587 -1.64395,-8.40499 -12.81635,-1.65183 -19.55654,-6.43704 -26.16927,-18.57894 -2.1069,-3.86857 -4.05573,-7.02955 -4.33073,-7.0244 -0.275,0.005 -2.4766,3.57834 -4.89245,7.94042 -6.3338,11.4364 -12.62717,15.89388 -24.77417,17.54712 -9.08134,1.236 -9.00036,0.96729 -2.50702,8.31782 8.44616,9.56114 9.59399,12.14232 9.63729,21.6719 0.02,4.4 -0.32751,10.12941 -0.77223,12.73203 l -0.80857,4.73202 8.80857,-4.23202 C -28.53645,-482.00205 -26.67636,-482.5 -20.5,-482.5 z m 109.68746,19.75 c -0.55252,-1.09513 -0.11668,-7.03063 1.16466,-15.86128 2.74275,-18.90219 2.63322,-19.23548 -10.89038,-33.13737 -5.75234,-5.91324 -10.45945,-11.5215 -10.46027,-12.46281 -0.002,-2.06206 3.42627,-3.0862 17.99853,-5.37714 11.63475,-1.82912 16.86216,-3.98089 19.77192,-8.13876 1.0672,-1.52495 4.26613,-7.32538 7.10875,-12.88985 2.84261,-5.56447 6.05735,-10.92171 7.14386,-11.90499 1.8973,-1.71703 2.05364,-1.71703 3.95094,0 1.08651,0.98328 4.30125,6.34052 7.14386,11.90499 2.84262,5.56447 6.07469,11.41144 7.18239,12.99327 2.76203,3.94428 8.40514,6.20558 20.19828,8.09383 13.82284,2.21323 17.5,3.30225 17.5,5.18275 0,0.86655 -4.71278,6.49371 -10.47285,12.5048 -13.26542,13.84355 -13.55369,14.64692 -11.20363,31.22299 2.15443,15.19622 2.16021,18.49672 0.0338,19.31269 -1.00057,0.38396 -6.86754,-1.97362 -15.00945,-6.03138 -17.24346,-8.59381 -17.51821,-8.5951 -34.34787,-0.16174 -7.13429,3.575 -13.63703,6.5 -14.45054,6.5 -0.8135,0 -1.8764,-0.7875 -2.362,-1.75 z M -363,-511 l 0,-18 54,0 54,0 0,18 0,18 -54,0 -54,0 0,-18 z"
         id="path3037"
         inkscape:connector-curvature="0" />
      <path
         style="fill:#ffffff"
         d="m -201.34418,-325.67054 c 0.34226,-7.0562 0.74163,-12.97387 0.88749,-13.15038 0.14585,-0.1765 5.06629,2.69298 10.93431,6.37663 5.86802,3.68365 10.29861,7.04007 9.84575,7.45871 -0.45285,0.41863 -5.65333,3.32241 -11.55661,6.45283 l -10.73323,5.69167 0.62229,-12.82946 z m -135.37851,-9.99614 -26.07065,-21.83332 11.89667,-0.28078 11.89667,-0.28078 0,-30.46922 0,-30.46922 30,0 30,0 0,30.46922 0,30.46922 12.0112,0.28078 12.0112,0.28078 -25.71213,21.42708 c -14.14167,11.7849 -26.66842,21.60989 -27.83722,21.83332 -1.59984,0.30583 -8.56889,-4.99023 -28.19574,-21.42708 z M -186.5,-338.09234 c -6.05,-3.82328 -10.8878,-7.27908 -10.75067,-7.67954 0.41704,-1.21791 35.4911,-56.64114 36.66034,-57.92984 0.83078,-0.91565 3.69237,0.39363 12.02088,5.5 6.0118,3.68594 11.06557,7.15172 11.23059,7.70172 0.34854,1.1616 -36.01614,58.8198 -37.30103,59.14284 -0.47306,0.11893 -5.81011,-2.9119 -11.86011,-6.73518 z m 43,-64.55147 c -5.5,-3.53106 -10.61545,-6.79075 -11.36767,-7.24375 -1.12793,-0.67927 -1.05174,-1.331 0.43462,-3.71804 3.32901,-5.34626 5.71029,-7.3944 8.59714,-7.3944 3.61696,0 16.5233,8.21979 18.00196,11.46509 1.29637,2.84522 0.12584,6.4823 -3.43887,10.68526 l -2.22718,2.62596 -10,-6.42012 z M -183,-475 l 0,-18 -18,0 -18,0 0,-18 0,-18 18,0 18,0 0,-18 0,-18 18,0 18,0 0,18 0,18 18,0 18,0 0,18 0,18 -18,0 -18,0 0,18 0,18 -18,0 -18,0 0,-18 z m 128.15663,12.25 c -0.59025,-1.13046 -0.26528,-5.64428 0.91791,-12.75 2.26569,-13.60667 2.35268,-18.54175 0.40887,-23.19395 -0.83412,-1.99634 -6.00912,-8.19504 -11.5,-13.7749 C -70.50747,-518.04871 -75,-523.34556 -75,-524.23964 c 0,-2.06795 1.29867,-2.45507 17.70643,-5.27812 17.2913,-2.97506 18.46968,-3.84689 26.8259,-19.84721 3.3645,-6.44226 6.87289,-12.46882 7.79644,-13.39237 1.57222,-1.57222 1.79827,-1.55381 3.54934,0.28909 1.0286,1.08254 4.22553,6.46825 7.10431,11.96825 9.14687,17.47542 10.26315,18.34113 27.01758,20.95309 14.41082,2.2466 18,3.29237 18,5.2446 0,0.89133 -4.51962,6.26599 -10.04361,11.94369 -13.73601,14.11827 -14.37534,16.00999 -11.44274,33.85862 1.93545,11.77966 1.91767,16.39726 -0.0661,17.15849 -0.88508,0.33963 -7.22562,-2.25486 -14.75,-6.03557 -17.22311,-8.65394 -17.71388,-8.65568 -34.84799,-0.12292 -7.17874,3.575 -13.66583,6.5 -14.41575,6.5 -0.74991,0 -1.77466,-0.7875 -2.27722,-1.75 z M -20.5,-482.46523 c 6.24402,0.031 7.90658,0.49906 15.39444,4.33379 l 8.39444,4.29901 -0.67334,-3.83379 c -3.10852,-17.6989 -1.57286,-24.26416 8.07949,-34.54144 3.52312,-3.75121 6.17066,-7.20064 5.88344,-7.66538 -0.28723,-0.46474 -3.12239,-1.14986 -6.30035,-1.52247 -3.17797,-0.37262 -7.51145,-1.19602 -9.62996,-1.82979 -5.64168,-1.68774 -13.0041,-8.84303 -17.31899,-16.83176 -2.06252,-3.81862 -3.99936,-6.94294 -4.30408,-6.94294 -0.30472,0 -2.55566,3.63188 -5.00208,8.07083 -6.427,11.66159 -12.92105,16.02636 -26.05542,17.51235 -3.30679,0.37412 -6.24993,1.06464 -6.54032,1.53449 -0.29038,0.46985 2.35458,3.92346 5.8777,7.67467 9.62488,10.24804 11.27198,17.39287 8.06088,34.96667 l -0.59549,3.25902 8.86482,-4.25902 c 7.87824,-3.78502 9.64386,-4.25514 15.86482,-4.22424 z M 89.15663,-462.75 c -0.59025,-1.13046 -0.26528,-5.64428 0.91791,-12.75 2.26569,-13.60667 2.35268,-18.54175 0.40887,-23.19395 -0.83412,-1.99634 -6.00912,-8.19504 -11.5,-13.7749 C 73.49253,-518.04871 69,-523.34556 69,-524.23964 c 0,-2.06795 1.29867,-2.45507 17.70643,-5.27812 17.2913,-2.97506 18.46968,-3.84689 26.8259,-19.84721 3.3645,-6.44226 6.87289,-12.46882 7.79644,-13.39237 1.57222,-1.57222 1.79827,-1.55381 3.54934,0.28909 1.0286,1.08254 4.22553,6.46825 7.10431,11.96825 9.14687,17.47542 10.26315,18.34113 27.01758,20.95309 14.41082,2.2466 18,3.29237 18,5.2446 0,0.89133 -4.51962,6.26599 -10.04361,11.94369 -13.73601,14.11827 -14.37534,16.00999 -11.44274,33.85862 1.9366,11.78667 1.918,16.39713 -0.0692,17.1597 -0.88432,0.33935 -7.36412,-2.26327 -15.01649,-6.03138 -17.64098,-8.68664 -18.2158,-8.68875 -34.89014,-0.12832 -6.96352,3.575 -13.29241,6.5 -14.06419,6.5 -0.77178,0 -1.81441,-0.7875 -2.31697,-1.75 z M -363,-511 l 0,-18 54,0 54,0 0,18 0,18 -54,0 -54,0 0,-18 z"
         id="path3035"
         inkscape:connector-curvature="0" />
      <path
         style="fill:#ffffff"
         d="m -336.61529,-335.71089 -26.07989,-21.78911 11.84759,-0.28078 11.84759,-0.28078 0,-30.46922 0,-30.46922 30,0 30,0 0,30.5 0,30.5 11.5,0 c 6.325,0 11.47492,0.3375 11.44426,0.75 -0.1005,1.35209 -50.69778,42.74261 -52.61258,43.03911 -1.21309,0.18784 -11.00207,-7.34296 -27.94697,-21.5 z M -201,-326.5 c 0,-6.875 0.20147,-12.5 0.4477,-12.5 0.54415,0 19.7118,11.93745 20.88608,13.00767 0.63195,0.57595 -19.36346,11.99233 -21.00417,11.99233 -0.18129,0 -0.32961,-5.625 -0.32961,-12.5 z m 14.32167,-11.69592 -11.17833,-7.00724 4.59407,-7.14842 c 2.52675,-3.93163 10.8536,-17.04842 18.50412,-29.14842 7.65053,-12.1 14.21344,-22.3136 14.58426,-22.69688 0.61259,-0.63318 20.01348,10.63615 22.37315,12.99582 0.66374,0.66374 -5.25446,10.90842 -17.67686,30.59943 -10.27107,16.2809 -18.97784,29.55918 -19.34838,29.5073 -0.37053,-0.0519 -5.70395,-3.2476 -11.85203,-7.10159 z M -137,-398.6003 c -1.925,-1.37623 -6.9875,-4.58998 -11.25,-7.14168 -4.2625,-2.55169 -7.73884,-4.89112 -7.72521,-5.19873 0.0136,-0.30761 1.59301,-2.69679 3.50972,-5.30929 2.688,-3.66378 4.11156,-4.74987 6.22521,-4.74944 2.43889,5e-4 12.16791,5.20471 16.58846,8.87344 2.50794,2.08141 2.08383,8.02597 -0.88423,12.39387 -1.39483,2.05267 -2.63233,3.71006 -2.75,3.68309 -0.11767,-0.027 -1.78895,-1.17504 -3.71395,-2.55126 z M -183,-475 l 0,-18 -18,0 -18,0 0,-18 0,-18 18,0 18,0 0,-18 0,-18 18,0 18,0 0,18 0,18 18,0 18,0 0,18 0,18 -18,0 -18,0 0,18 0,18 -18,0 -18,0 0,-18 z m 128.22734,12.44175 c -0.52988,-0.94685 -0.1653,-5.94952 0.92918,-12.75 2.24168,-13.92845 2.29816,-19.89076 0.22724,-23.99141 -0.88894,-1.76019 -6.06394,-7.7476 -11.5,-13.30537 C -70.55231,-518.1628 -75,-523.1702 -75,-523.73259 c 0,-2.21522 3.12734,-3.28253 15.37559,-5.24745 19.99601,-3.20785 20.33558,-3.45303 29.83443,-21.54186 5.47843,-10.43265 6.61254,-11.9781 8.78998,-11.9781 2.17744,0 3.31155,1.54545 8.78998,11.9781 9.49885,18.08883 9.83842,18.33401 29.83443,21.54186 12.43316,1.99458 15.37559,3.02312 15.37559,5.37456 0,0.6323 -3.87697,4.9647 -8.6155,9.62756 -4.73852,4.66286 -9.91352,10.47852 -11.5,12.9237 -3.40368,5.24597 -3.68786,9.97803 -1.3845,23.05422 1.89763,10.7729 1.92654,15.89909 0.0936,16.60245 -0.7735,0.29682 -7.3441,-2.4173 -14.60133,-6.03139 -17.53088,-8.73035 -18.42759,-8.73214 -35.53043,-0.0711 -7.05947,3.575 -13.40399,6.5 -14.09894,6.5 -0.69495,0 -1.65596,-0.70121 -2.13558,-1.55825 z m 28.49369,-19.39605 c 6.95145,-1.63937 12.07001,-0.65689 21.66989,4.15942 l 7.89093,3.95891 -0.66289,-4.14547 c -2.95413,-18.47413 -1.63106,-23.84158 8.50807,-34.51544 7.94569,-8.36475 8.34097,-7.4369 -4.07266,-9.55979 -3.54509,-0.60626 -8.06532,-1.92859 -10.04495,-2.93852 -5.09542,-2.59949 -11.02043,-9.46551 -14.42314,-16.71381 -1.60254,-3.41367 -3.30124,-5.96716 -3.77489,-5.67443 -0.47365,0.29273 -2.45911,3.7053 -4.41213,7.58348 -1.95302,3.87818 -4.97932,8.39295 -6.72511,10.03283 -4.66599,4.38293 -12.11688,7.55096 -19.5866,8.328 -3.62315,0.3769 -6.9452,0.8939 -7.38233,1.14889 -0.43713,0.25499 2.32045,3.74315 6.12796,7.75146 10.19512,10.73281 11.70758,16.90117 8.55101,34.87422 l -0.67361,3.83544 6.89471,-3.44696 c 3.79209,-1.89582 9.24417,-4.00103 12.11574,-4.67823 z m 115.50631,19.39605 c -0.52988,-0.94685 -0.1653,-5.94952 0.92918,-12.75 2.25052,-13.98333 2.29837,-19.90862 0.19375,-23.99141 -0.90734,-1.76019 -6.08234,-7.76596 -11.5,-13.34617 C 73.43262,-518.22603 69,-523.23343 69,-523.77338 c 0,-2.17158 3.18991,-3.25178 15.37559,-5.20666 19.99601,-3.20785 20.33558,-3.45303 29.83443,-21.54186 5.47843,-10.43265 6.61254,-11.9781 8.78998,-11.9781 2.17744,0 3.31155,1.54545 8.78998,11.9781 9.49885,18.08883 9.83842,18.33401 29.83443,21.54186 12.43316,1.99458 15.37559,3.02312 15.37559,5.37456 0,0.6323 -3.87697,4.9647 -8.6155,9.62756 -4.73852,4.66286 -9.91352,10.47852 -11.5,12.9237 -3.40368,5.24597 -3.68786,9.97803 -1.3845,23.05422 1.89763,10.7729 1.92654,15.89909 0.0936,16.60245 -0.7735,0.29682 -7.3441,-2.4173 -14.60133,-6.03139 -17.53996,-8.73487 -18.44103,-8.73665 -35.84189,-0.0711 -7.17874,3.575 -13.50198,6.5 -14.05164,6.5 -0.54966,0 -1.3918,-0.70121 -1.87142,-1.55825 z M -363,-511 l 0,-18 54,0 54,0 0,18 0,18 -54,0 -54,0 0,-18 z"
         id="path3033"
         inkscape:connector-curvature="0" />
      <path
         style="fill:#ffffff"
         d="M -331.58156,-331.56266 C -343.0867,-341.22212 -354.75,-351.09818 -357.5,-353.50945 l -5,-4.38413 11.75,-0.0532 11.75,-0.0532 0,-30.5 0,-30.5 30,0 30,0 0,30.5 0,30.5 11.72727,0 11.72728,0 -2.47728,2.43732 c -6.67638,6.56869 -49.65436,41.56268 -51.04535,41.56268 -0.87728,0 -11.00834,-7.9032 -22.51348,-17.56266 z M -201,-326.41667 c 0,-6.92083 0.23565,-12.58333 0.52367,-12.58333 0.28802,0 5.31803,3.10575 11.17781,6.90166 l 10.65413,6.90165 -10.4278,5.33822 c -5.7353,2.93602 -10.76531,5.49277 -11.17781,5.68167 -0.4125,0.18891 -0.75,-5.31903 -0.75,-12.23987 z m 14.88127,-11.67006 -11.61874,-7.05689 18.96268,-29.84685 18.96267,-29.84686 4.65646,2.74555 c 2.56106,1.51005 7.68677,4.65936 11.39048,6.99846 l 6.73401,4.25292 -1.53747,2.97313 c -0.8456,1.63522 -7.87152,12.96181 -15.61313,25.1702 -7.74162,12.20839 -15.40635,24.33457 -17.03273,26.94707 -1.62638,2.6125 -3.03095,4.74329 -3.12127,4.73508 -0.0903,-0.008 -5.39266,-3.19052 -11.78296,-7.07181 z m 40.96749,-65.71021 c -11.75137,-7.39539 -11.49639,-6.819 -6.17239,-13.95306 3.18971,-4.27414 5.9856,-4.19072 13.69282,0.40856 8.6222,5.14531 9.63081,6.18622 9.63081,9.93927 0,3.61025 -3.52245,10.4297 -5.34878,10.35523 -0.63317,-0.0258 -5.94428,-3.06332 -11.80246,-6.75 z M -183,-475 l 0,-18 -18,0 -18,0 0,-18 0,-18 18,0 18,0 0,-18 0,-18 18,0 18,0 0,18 0,18 18,0 18,0 0,18 0,18 -18,0 -18,0 0,18 0,18 -18,0 -18,0 0,-18 z m 128.31462,12.37751 c -0.37154,-0.96822 0.0825,-6.96175 1.00897,-13.31895 1.93882,-13.30371 2.09689,-18.82241 0.64824,-22.63264 -0.56549,-1.48735 -5.74049,-7.54203 -11.5,-13.45483 C -70.28767,-517.94172 -75,-523.22399 -75,-523.76729 c 0,-2.15784 3.16298,-3.30856 13.10875,-4.7691 14.37371,-2.11078 19.94506,-3.86657 23.26501,-7.33184 1.55001,-1.61786 5.58751,-8.27186 8.97222,-14.78667 C -24.2887,-560.98193 -23.1796,-562.5 -21,-562.5 c 2.17767,0 3.31231,1.54689 8.8003,11.99778 3.46516,6.59878 7.50266,13.25278 8.97222,14.78667 3.16042,3.29877 8.96127,5.10013 23.11873,7.17916 9.94577,1.46054 13.10875,2.61126 13.10875,4.7691 0,0.5433 -4.71233,5.82557 -10.47183,11.73838 -5.75951,5.9128 -10.93451,11.96748 -11.5,13.45483 -1.42598,3.75061 -1.27925,10.4996 0.45818,21.07408 1.77407,10.79749 1.88708,15.15117 0.41688,16.05981 -0.60322,0.37281 -7.15907,-2.30064 -14.56857,-5.94099 -17.74152,-8.71657 -19.11094,-8.74591 -35.10004,-0.75193 -14.72557,7.36227 -16.0446,7.79186 -16.92,5.51062 z m 27.76392,-18.97614 c 7.50992,-1.92395 12.89907,-0.94857 23.07628,4.1766 l 7.14089,3.59609 -0.70462,-4.83703 c -2.71065,-18.60804 -1.52135,-23.2462 8.72717,-34.03522 4.45895,-4.69412 6.42736,-7.42496 5.54676,-7.69518 -0.75076,-0.23038 -4.66639,-0.9218 -8.70139,-1.53649 -4.035,-0.61469 -9.00523,-1.96901 -11.04495,-3.00959 -5.20667,-2.65625 -11.10649,-9.47197 -14.55255,-16.81171 C -19.0475,-545.18802 -20.65226,-548 -21,-548 c -0.34774,0 -1.9525,2.81198 -3.56613,6.24884 -3.44606,7.33974 -9.34588,14.15546 -14.55255,16.81171 -2.03972,1.04058 -7.00995,2.3949 -11.04495,3.00959 -4.035,0.61469 -7.95063,1.30611 -8.70139,1.53649 -0.8806,0.27022 1.08781,3.00105 5.54676,7.69518 10.24565,10.786 11.56854,16.03526 8.70333,34.53492 l -0.67168,4.33674 6.16863,-3.11392 c 3.39275,-1.71265 8.88118,-3.80883 12.19652,-4.65818 z m 116.23608,18.97614 c -0.37154,-0.96822 0.0825,-6.96175 1.00897,-13.31895 1.93882,-13.30371 2.09689,-18.82241 0.64824,-22.63264 -0.56549,-1.48735 -5.74049,-7.54203 -11.5,-13.45483 C 73.71233,-517.94172 69,-523.22399 69,-523.76729 c 0,-2.15784 3.16298,-3.30856 13.10875,-4.7691 14.37371,-2.11078 19.94506,-3.86657 23.26501,-7.33184 1.55001,-1.61786 5.58751,-8.27186 8.97222,-14.78667 C 119.7113,-560.98193 120.8204,-562.5 123,-562.5 c 2.17767,0 3.31231,1.54689 8.8003,11.99778 3.46516,6.59878 7.50266,13.25278 8.97222,14.78667 3.16042,3.29877 8.96127,5.10013 23.11873,7.17916 9.94577,1.46054 13.10875,2.61126 13.10875,4.7691 0,0.5433 -4.71233,5.82557 -10.47183,11.73838 -5.75951,5.9128 -10.93451,11.96748 -11.5,13.45483 -1.42598,3.75061 -1.27925,10.4996 0.45818,21.07408 1.77407,10.79749 1.88708,15.15117 0.41688,16.05981 -0.60322,0.37281 -7.15907,-2.30064 -14.56857,-5.94099 -17.74152,-8.71657 -19.11094,-8.74591 -35.10004,-0.75193 -14.72557,7.36227 -16.0446,7.79186 -16.92,5.51062 z M -363,-511 l 0,-18 54,0 54,0 0,18 0,18 -54,0 -54,0 0,-18 z"
         id="path3031"
         inkscape:connector-curvature="0" />
      <path
         style="fill:#ffffff"
         d="m -313.06703,-316.25873 c -1.41186,-1.2327 -13.04777,-11.01627 -25.85758,-21.74127 l -23.29055,-19.5 11.60758,-0.28174 11.60758,-0.28173 0,-30.46827 0,-30.46826 30,0 30,0 0,30.5 0,30.5 8.25,0.11831 c 16.48853,0.23647 17.27728,-1.34294 -11.17724,22.38169 -13.85268,11.55 -25.94855,21.10857 -26.87972,21.24127 -0.93117,0.1327 -2.8482,-0.7673 -4.26007,-2 z M -201,-325.95891 c 0,-7.44757 0.38566,-12.04109 1.01094,-12.04109 0.86101,0 13.59552,7.60657 19.29707,11.52651 1.59868,1.09913 0.52773,1.89793 -9.25,6.89936 l -11.05801,5.65631 0,-12.04109 z m 15.9817,-11.55246 C -190.76088,-341.08012 -195.806,-344 -196.22968,-344 c -1.8426,0 0.11671,-3.50425 15.54571,-27.80362 8.97382,-14.13301 17.17084,-27.15888 18.21561,-28.94638 1.04477,-1.7875 2.28214,-3.25 2.74971,-3.25 1.18226,0 3.8722,1.48656 13.97073,7.72073 8.15882,5.03673 8.67521,5.5513 7.61807,7.59112 -1.2271,2.36776 -34.79418,55.70951 -35.82307,56.92678 -0.34338,0.40624 -5.3228,-2.18126 -11.06538,-5.75 z m 39.7709,-66.41927 -10.74741,-6.79792 2.58368,-3.88572 c 5.29892,-7.96928 7.20056,-8.12216 17.66113,-1.41988 6.90912,4.42681 7.75,5.29912 7.75,8.03971 0,3.68273 -3.53929,11.02151 -5.27032,10.92809 -0.67633,-0.0365 -6.06601,-3.12542 -11.97708,-6.86428 z M -183,-475 l 0,-18 -18,0 -18,0 0,-18 0,-18 18,0 18,0 0,-18 0,-18 18,0 18,0 -0.001,18.25 -0.001,18.25 18.00101,-0.33098 18.00099,-0.33098 0,18.08098 0,18.08098 -18,0 -18,0 0,18 0,18 -18,0 -18,0 0,-18 z m 128.33348,12.42666 c -0.36116,-0.94118 0.13475,-6.75755 1.10203,-12.92527 2.02426,-12.90738 2.18268,-20.44163 0.49851,-23.70953 -0.64963,-1.26052 -5.85054,-7.06211 -11.55758,-12.89242 C -70.3306,-517.93086 -75,-523.20253 -75,-523.81537 c 0,-1.94391 3.52389,-3.11162 14.15604,-4.69087 13.3209,-1.97862 18.83957,-3.83597 22.38106,-7.53248 1.57303,-1.64189 5.58418,-8.26736 8.91367,-14.72327 C -24.2727,-560.99323 -23.17526,-562.5 -21,-562.5 c 2.17526,0 3.2727,1.50677 8.54923,11.73801 3.32949,6.45591 7.34064,13.08138 8.91367,14.72327 3.54149,3.69651 9.06016,5.55386 22.38106,7.53248 10.62528,1.57823 14.15604,2.7471 14.15604,4.68639 0,0.61038 -4.42976,5.65705 -9.8439,11.21482 -5.41415,5.55777 -10.58915,11.21766 -11.5,12.57754 -2.1217,3.16764 -2.18707,13.07676 -0.15627,23.68952 1.90094,9.93412 1.91076,13.96643 0.0358,14.68593 -0.80541,0.30907 -7.35348,-2.34279 -14.55126,-5.89301 -17.31119,-8.53854 -18.79732,-8.56369 -34.74973,-0.58806 -14.65815,7.32856 -16.04706,7.78545 -16.90114,5.55977 z m 17.00347,-14.82071 c 14.32815,-6.52955 20.88271,-6.54203 33.74587,-0.0642 l 7.19414,3.62291 -0.88293,-6.33231 c -2.31818,-16.62592 -0.52441,-22.70406 9.90604,-33.56629 3.31372,-3.45089 5.83931,-6.42188 5.61243,-6.60221 -0.22687,-0.18036 -4.2375,-0.88647 -8.9125,-1.56917 -13.3936,-1.9559 -19.29086,-6.34526 -26.02758,-19.37245 -1.90983,-3.69316 -3.69742,-6.71483 -3.97242,-6.71483 -0.275,0 -2.06259,3.02167 -3.97242,6.71483 -6.73672,13.02719 -12.63398,17.41655 -26.02758,19.37245 -4.675,0.6827 -8.67696,1.38014 -8.89323,1.54986 -0.21628,0.16973 2.54786,3.42632 6.14254,7.23686 4.55506,4.8286 7.17446,8.63531 8.64324,12.56095 2.47456,6.61386 2.58424,9.5452 0.72245,19.30765 -0.76046,3.9875 -1.23486,7.25 -1.05423,7.25 0.18064,0 3.67992,-1.52732 7.77618,-3.39405 z m 126.99653,14.82071 c -0.36116,-0.94118 0.13475,-6.75755 1.10203,-12.92527 2.02426,-12.90738 2.18268,-20.44163 0.49851,-23.70953 -0.64963,-1.26052 -5.85054,-7.06211 -11.55758,-12.89242 C 73.6694,-517.93086 69,-523.20253 69,-523.81537 c 0,-1.94391 3.52389,-3.11162 14.15604,-4.69087 13.3209,-1.97862 18.83957,-3.83597 22.38106,-7.53248 1.57303,-1.64189 5.58418,-8.26736 8.91367,-14.72327 C 119.7273,-560.99323 120.82474,-562.5 123,-562.5 c 2.17526,0 3.2727,1.50677 8.54923,11.73801 3.32949,6.45591 7.34064,13.08138 8.91367,14.72327 3.54149,3.69651 9.06016,5.55386 22.38106,7.53248 10.62528,1.57823 14.15604,2.7471 14.15604,4.68639 0,0.61038 -4.42976,5.65705 -9.8439,11.21482 -5.41415,5.55777 -10.58915,11.21766 -11.5,12.57754 -2.1217,3.16764 -2.18707,13.07676 -0.15627,23.68952 1.90094,9.93412 1.91076,13.96643 0.0358,14.68593 -0.80541,0.30907 -7.35348,-2.34279 -14.55126,-5.89301 -17.31119,-8.53854 -18.79732,-8.56369 -34.74973,-0.58806 -14.65815,7.32856 -16.04706,7.78545 -16.90114,5.55977 z M -363,-511 l 0,-18 54,0 54,0 0,18 0,18 -54,0 -54,0 0,-18 z"
         id="path3029"
         inkscape:connector-curvature="0" />
    </g>
  </g>
</svg>
